{"title":"Pirates of The Caribbean On Stranger Tides (2011) BRrip 720p x26","uid":10511769,"size":2352225247,"categoryP":"video","categoryS":"hd___movies","magnet":"?xt=urn:btih:51001a5721f2e80325d88e9703e4ba2536edf24e&amp;dn=Pirates+of+The+Caribbean+On+Stranger+Tides+%282011%29+BRrip+720p+x26&amp;tr=udp%3A%2F%2Ftracker.openbittorrent.com%3A80&amp;tr=udp%3A%2F%2Fopen.demonii.com%3A1337&amp;tr=udp%3A%2F%2Ftracker.coppersurfer.tk%3A6969&amp;tr=udp%3A%2F%2Fexodus.desync.com%3A6969","seeders":11,"leechers":5,"uploader":"Xdesiars","files":4,"time":1404852932,"description":"Format                                   : Matroska\nFormat version                           : Version 2\nFile size                                : 2.17 GiB\nDuration                                 : 2h 16mn\nOverall bit rate                         : 2 279 Kbps\nMovie name                               : Pirates of The Caribbean On The Stranger Tides (2011) by XdesiArsenal [ExD-XMR]\nEncoded date                             : UTC 2014-07-07 17:48:03\nWriting application                      : mkvmerge v5.0.1 ('Es ist Sommer') built on Nov 23 2011 20:48:57\nWriting library                          : libebml v1.2.2 + libmatroska v1.3.0\n\nVideo\nID                                       : 1\nFormat                                   : AVC\nFormat/Info                              : Advanced Video Codec\nFormat profile                           : &lt;a class=&quot;__cf_email__&quot; href=&quot;/cdn-cgi/l/email-protection&quot; data-cfemail=&quot;511c30383f111d627f60&quot;&gt;[email&amp;#160;protected]&lt;/a&gt;&lt;script cf-hash='f9e31' type=&quot;text/javascript&quot;&gt;\n/* &lt;![CDATA[ */!function(){try{var t=&quot;currentScript&quot;in document?document.currentScript:function(){for(var t=document.getElementsByTagName(&quot;script&quot;),e=t.length;e--;)if(t[e].getAttribute(&quot;cf-hash&quot;))return t[e]}();if(t&amp;&amp;t.previousSibling){var e,r,n,i,c=t.previousSibling,a=c.getAttribute(&quot;data-cfemail&quot;);if(a){for(e=&quot;&quot;,r=parseInt(a.substr(0,2),16),n=2;a.length-n;n+=2)i=parseInt(a.substr(n,2),16)^r,e+=String.fromCharCode(i);e=document.createTextNode(e),c.parentNode.replaceChild(e,c)}}}catch(u){}}();/* ]]&gt; */&lt;/script&gt;\nFormat settings, CABAC                   : Yes\nFormat settings, ReFrames                : 4 frames\nMuxing mode                              : Header stripping\nCodec ID                                 : V_MPEG4/ISO/AVC\nDuration                                 : 2h 16mn\nBit rate                                 : 1 466 Kbps\nWidth                                    : 1 280 pixels\nHeight                                   : 720 pixels\nDisplay aspect ratio                     : 2.40:1\nFrame rate mode                          : Constant\nFrame rate                               : 23.976 fps\nColor space                              : YUV\nChroma subsampling                       : 4:2:0\nBit depth                                : 8 bits\nScan type                                : Progressive\nBits/(Pixel*Frame)                       : 0.066\nStream size                              : 1.40 GiB (64%)\nTitle                                    : Pirates of The Caribbean On The Stranger Tides (2011) by XdesiArsenal [ExD-XMR]\nWriting library                          : x264 core 112\nLanguage                                 : English\nDefault                                  : Yes\nForced                                   : No\nColor primaries                          : BT.709\nTransfer characteristics                 : BT.709\nMatrix coefficients                      : BT.709\n\nAudio #1\nID                                       : 2\nFormat                                   : AC-3\nFormat/Info                              : Audio Coding 3\nMode extension                           : CM (complete main)\nFormat settings, Endianness              : Big\nMuxing mode                              : Header stripping\nCodec ID                                 : A_AC3\nDuration                                 : 2h 16mn\nBit rate mode                            : Constant\nBit rate                                 : 640 Kbps\nChannel(s)                               : 6 channels\nChannel positions                        : Front: L C R, Side: L R, LFE\nSampling rate                            : 48.0 KHz\nBit depth                                : 16 bits\nCompression mode                         : Lossy\nStream size                              : 624 MiB (28%)\nTitle                                    : XdesiArsenal (DD 5.1)\nLanguage                                 : Hindi\nDefault                                  : Yes\nForced                                   : No\n\nAudio #2\nID                                       : 3\nFormat                                   : AC-3\nFormat/Info                              : Audio Coding 3\nMode extension                           : CM (complete main)\nFormat settings, Endianness              : Big\nMuxing mode                              : Header stripping\nCodec ID                                 : A_AC3\nDuration                                 : 2h 16mn\nBit rate mode                            : Constant\nBit rate                                 : 128 Kbps\nChannel(s)                               : 6 channels\nChannel positions                        : Front: L C R, Side: L R, LFE\nSampling rate                            : 48.0 KHz\nBit depth                                : 16 bits\nCompression mode                         : Lossy\nStream size                              : 125 MiB (6%)\nTitle                                    : XdesiArsenal (DD 5.1)\nLanguage                                 : English\nDefault                                  : No\nForced                                   : No\n\nMenu\n00:00:00.000                             : en:Chapter 1\n00:03:34.172                             : en:Chapter 2\n00:08:46.776                             : en:Chapter 3\n00:15:56.205                             : en:Chapter 4\n00:18:34.279                             : en:Chapter 5\n00:21:15.399                             : en:Chapter 6\n00:30:05.553                             : en:Chapter 7\n00:36:56.797                             : en:Chapter 8\n00:42:05.356                             : en:Chapter 9\n00:48:20.022                             : en:Chapter 10\n00:53:26.203                             : en:Chapter 11\n00:55:43.006                             : en:Chapter 12\n00:57:52.844                             : en:Chapter 13\n01:00:47.477                             : en:Chapter 14\n01:08:22.264                             : en:Chapter 15\n01:11:41.505                             : en:Chapter 16\n01:13:03.170                             : en:Chapter 17\n01:14:16.827                             : en:Chapter 18\n01:23:19.995                             : en:Chapter 19\n01:26:49.704                             : en:Chapter 20\n01:30:16.536                             : en:Chapter 21\n01:35:43.738                             : en:Chapter 22\n01:40:58.093                             : en:Chapter 23\n01:43:07.556                             : en:Chapter 24\n01:44:51.660                             : en:Chapter 25\n01:48:53.735                             : en:Chapter 26\n01:57:41.471                             : en:Chapter 27\n02:02:21.459                             : en:Chapter 28\n02:05:51.585                             : en:Chapter 29\n02:07:26.847                             : en:Chapter 30\n","torrent":{"xt":"urn:btih:51001a5721f2e80325d88e9703e4ba2536edf24e","amp;dn":"Pirates+of+The+Caribbean+On+Stranger+Tides+%282011%29+BRrip+720p+x26","amp;tr":["udp%3A%2F%2Ftracker.openbittorrent.com%3A80","udp%3A%2F%2Fopen.demonii.com%3A1337","udp%3A%2F%2Ftracker.coppersurfer.tk%3A6969","udp%3A%2F%2Fexodus.desync.com%3A6969"],"infoHash":"51001a5721f2e80325d88e9703e4ba2536edf24e","infoHashBuffer":{"type":"Buffer","data":[81,0,26,87,33,242,232,3,37,216,142,151,3,228,186,37,54,237,242,78]},"announce":[],"urlList":[]}}